<svg xmlns="http://www.w3.org/2000/svg" width="4096" height="4096" viewBox="0 0 4096 4096"><defs><style>.cls-1{fill:#fff;fill-rule:evenodd}</style></defs><g id="Artboard_1" data-name="Artboard 1"><rect id="Rounded_Rectangle_1" width="3668.096" height="3653.099" x="213.594" y="221.781" data-name="Rounded Rectangle 1" rx="279" ry="279"/><path id="J_copy" d="M2063.8,2913.07c475.53,0,772.74-259.38,772.74-815.97V70.676H2523.12v2010.2c0,362.06-178.32,524.17-480.93,524.17-178.33,0-340.44-54.04-448.52-118.88l-118.88,275.59C1615.29,2837.41,1815.23,2913.07,2063.8,2913.07Zm37.83,507.95c745.72,0,1242.87-443.11,1242.87-1296.91V70.676H3031.08V2107.9c0,670.07-362.05,1005.11-951.07,1005.11-270.19,0-518.76-81.06-686.28-167.52l-118.88,270.19C1469.39,3323.75,1761.19,3421.02,2101.63,3421.02Z" class="cls-1" data-name="J copy"/></g></svg>